<svg width="25" height="24" viewBox="0 0 25 24" fill="none" xmlns="http://www.w3.org/2000/svg">
<rect x="0.586914" y="0.00195312" width="24" height="24" rx="5" fill="#F2F1FA"/>
<path d="M6.58691 7.61516C6.58691 7.23035 6.72205 6.91289 6.99232 6.66278C7.26259 6.41265 7.61394 6.2876 8.04637 6.2876C8.47109 6.2876 8.81471 6.41073 9.07726 6.65701C9.34753 6.91097 9.48267 7.24189 9.48267 7.64979C9.48267 8.0192 9.3514 8.32703 9.08884 8.57331C8.81858 8.82728 8.46336 8.95426 8.02321 8.95426H8.01162C7.58691 8.95426 7.24329 8.82728 6.98074 8.57331C6.71818 8.31934 6.58691 7.99995 6.58691 7.61516ZM6.73749 17.7162V10.0048H9.30892V17.7162H6.73749ZM10.7336 17.7162H13.3051V13.4102C13.3051 13.1409 13.336 12.9331 13.3977 12.7869C13.5058 12.5252 13.6699 12.3039 13.89 12.1231C14.1101 11.9422 14.3861 11.8518 14.7182 11.8518C15.5831 11.8518 16.0155 12.4329 16.0155 13.595V17.7162H18.5869V13.2948C18.5869 12.1558 18.3166 11.2919 17.7761 10.7032C17.2356 10.1144 16.5213 9.82006 15.6332 9.82006C14.6371 9.82006 13.861 10.2472 13.3051 11.1014V11.1245H13.2935L13.3051 11.1014V10.0048H10.7336C10.7491 10.251 10.7568 11.0168 10.7568 12.302C10.7568 13.5873 10.7491 15.392 10.7336 17.7162Z" fill="#555555"/>
</svg>
