<svg width="25" height="24" viewBox="0 0 25 24" fill="none" xmlns="http://www.w3.org/2000/svg">
<rect x="0.586914" y="0.00195312" width="24" height="24" rx="5" fill="#F2F1FA"/>
<path d="M12.8793 16.6552L10.1711 16.6046C9.29429 16.587 8.41528 16.6222 7.55564 16.4395C6.24793 16.1665 6.15529 14.8279 6.05835 13.705C5.92477 12.1265 5.97648 10.5193 6.22856 8.95388C6.37086 8.07553 6.93088 7.55142 7.79693 7.49438C10.7205 7.2874 13.6635 7.31193 16.5806 7.4085C16.8887 7.41735 17.1989 7.46573 17.5027 7.52081C19.0022 7.78942 19.0388 9.30635 19.136 10.5833C19.2329 11.8735 19.192 13.1702 19.0067 14.4516C18.858 15.5125 18.5736 16.4022 17.3734 16.4881C15.8695 16.6004 14.4002 16.6908 12.8921 16.6621C12.8922 16.6552 12.8836 16.6552 12.8793 16.6552ZM11.2871 13.9693C12.4204 13.3043 13.5321 12.6505 14.6588 11.99C13.5235 11.325 12.4139 10.6712 11.2871 10.0107V13.9693Z" fill="#555555"/>
</svg>
