<svg width="16" height="18" viewBox="0 0 16 18" fill="none" xmlns="http://www.w3.org/2000/svg">
<path fill-rule="evenodd" clip-rule="evenodd" d="M5.5 1.49999C5.5 1.03975 5.1269 0.666656 4.66667 0.666656C4.20643 0.666656 3.83333 1.03975 3.83333 1.49999H3C1.61929 1.49999 0.5 2.61928 0.5 3.99999V14.8333C0.5 16.214 1.61929 17.3333 3 17.3333H13C14.3807 17.3333 15.5 16.214 15.5 14.8333V3.99999C15.5 2.61928 14.3807 1.49999 13 1.49999H12.1667C12.1667 1.03975 11.7936 0.666656 11.3333 0.666656C10.8731 0.666656 10.5 1.03975 10.5 1.49999H5.5ZM13.8333 4.83332V3.99999C13.8333 3.53975 13.4602 3.16666 13 3.16666H12.1667C12.1667 3.62689 11.7936 3.99999 11.3333 3.99999C10.8731 3.99999 10.5 3.62689 10.5 3.16666H5.5C5.5 3.62689 5.1269 3.99999 4.66667 3.99999C4.20643 3.99999 3.83333 3.62689 3.83333 3.16666H3C2.53976 3.16666 2.16667 3.53975 2.16667 3.99999V4.83332H13.8333ZM2.16667 6.49999V14.8333C2.16667 15.2936 2.53976 15.6667 3 15.6667H13C13.4602 15.6667 13.8333 15.2936 13.8333 14.8333V6.49999H2.16667Z" fill="#667085"/>
</svg>
