<svg xmlns="http://www.w3.org/2000/svg" width="20" height="20" viewBox="0 0 20 20" fill="none">
  <path d="M14.1615 4.16406C14.1615 3.66961 14.3081 3.18626 14.5828 2.77514C14.8575 2.36402 15.2479 2.04358 15.7047 1.85436C16.1616 1.66515 16.6642 1.61564 17.1492 1.7121C17.6341 1.80856 18.0796 2.04667 18.4292 2.3963C18.7789 2.74593 19.017 3.19139 19.1134 3.67634C19.2099 4.16129 19.1604 4.66396 18.9712 5.12077C18.7819 5.57759 18.4615 5.96803 18.0504 6.24274C17.6393 6.51744 17.1559 6.66406 16.6615 6.66406C15.9984 6.66406 15.3625 6.40067 14.8937 5.93183C14.4248 5.46299 14.1615 4.82711 14.1615 4.16406ZM1.66146 4.9974H11.6615C11.8825 4.9974 12.0944 4.9096 12.2507 4.75332C12.407 4.59704 12.4948 4.38508 12.4948 4.16406C12.4948 3.94305 12.407 3.73109 12.2507 3.57481C12.0944 3.41853 11.8825 3.33073 11.6615 3.33073H1.66146C1.44044 3.33073 1.22848 3.41853 1.0722 3.57481C0.915922 3.73109 0.828125 3.94305 0.828125 4.16406C0.828125 4.38508 0.915922 4.59704 1.0722 4.75332C1.22848 4.9096 1.44044 4.9974 1.66146 4.9974ZM6.66146 7.4974C6.14567 7.49885 5.64296 7.6598 5.22224 7.95818C4.80152 8.25656 4.48339 8.67777 4.31146 9.16406H1.66146C1.44044 9.16406 1.22848 9.25186 1.0722 9.40814C0.915922 9.56442 0.828125 9.77638 0.828125 9.9974C0.828125 10.2184 0.915922 10.4304 1.0722 10.5867C1.22848 10.7429 1.44044 10.8307 1.66146 10.8307H4.31146C4.46434 11.2631 4.73321 11.6451 5.08866 11.935C5.44411 12.2248 5.87244 12.4112 6.32676 12.4739C6.78108 12.5366 7.2439 12.4731 7.66455 12.2904C8.0852 12.1077 8.44748 11.8127 8.71175 11.4379C8.97601 11.0631 9.13207 10.6227 9.16284 10.1651C9.19362 9.70755 9.09793 9.25031 8.88624 8.84346C8.67455 8.43661 8.35502 8.09583 7.96262 7.85842C7.57023 7.62101 7.12008 7.49611 6.66146 7.4974ZM18.3281 9.16406H11.6615C11.4404 9.16406 11.2285 9.25186 11.0722 9.40814C10.9159 9.56442 10.8281 9.77638 10.8281 9.9974C10.8281 10.2184 10.9159 10.4304 11.0722 10.5867C11.2285 10.7429 11.4404 10.8307 11.6615 10.8307H18.3281C18.5491 10.8307 18.7611 10.7429 18.9174 10.5867C19.0737 10.4304 19.1615 10.2184 19.1615 9.9974C19.1615 9.77638 19.0737 9.56442 18.9174 9.40814C18.7611 9.25186 18.5491 9.16406 18.3281 9.16406ZM8.32812 14.9974H1.66146C1.44044 14.9974 1.22848 15.0852 1.0722 15.2415C0.915922 15.3978 0.828125 15.6097 0.828125 15.8307C0.828125 16.0517 0.915922 16.2637 1.0722 16.42C1.22848 16.5763 1.44044 16.6641 1.66146 16.6641H8.32812C8.54914 16.6641 8.7611 16.5763 8.91738 16.42C9.07366 16.2637 9.16146 16.0517 9.16146 15.8307C9.16146 15.6097 9.07366 15.3978 8.91738 15.2415C8.7611 15.0852 8.54914 14.9974 8.32812 14.9974ZM18.3281 14.9974H15.6781C15.4815 14.4414 15.0947 13.9728 14.5861 13.6744C14.0774 13.376 13.4796 13.267 12.8983 13.3667C12.3171 13.4665 11.7898 13.7685 11.4097 14.2193C11.0296 14.6702 10.8211 15.241 10.8211 15.8307C10.8211 16.4205 11.0296 16.9912 11.4097 17.4421C11.7898 17.893 12.3171 18.195 12.8983 18.2947C13.4796 18.3945 14.0774 18.2855 14.5861 17.9871C15.0947 17.6887 15.4815 17.2201 15.6781 16.6641H18.3281C18.5491 16.6641 18.7611 16.5763 18.9174 16.42C19.0737 16.2637 19.1615 16.0517 19.1615 15.8307C19.1615 15.6097 19.0737 15.3978 18.9174 15.2415C18.7611 15.0852 18.5491 14.9974 18.3281 14.9974Z" fill="white"/>
</svg>