<svg width="126" height="20" viewBox="0 0 126 20" fill="none" xmlns="http://www.w3.org/2000/svg">
<path d="M2.43152 16V3.4H4.73552V14.2H10.3155V16H2.43152ZM16.2253 16.216C15.3253 16.216 14.5273 16.024 13.8313 15.64C13.1353 15.256 12.5893 14.716 12.1933 14.02C11.7973 13.324 11.5993 12.52 11.5993 11.608C11.5993 10.684 11.7913 9.862 12.1753 9.142C12.5713 8.422 13.1113 7.864 13.7953 7.468C14.4913 7.06 15.3073 6.856 16.2433 6.856C17.1193 6.856 17.8933 7.048 18.5653 7.432C19.2373 7.816 19.7593 8.344 20.1313 9.016C20.5153 9.676 20.7073 10.414 20.7073 11.23C20.7073 11.362 20.7013 11.5 20.6893 11.644C20.6893 11.788 20.6833 11.938 20.6713 12.094H13.8853C13.9333 12.79 14.1733 13.336 14.6053 13.732C15.0493 14.128 15.5833 14.326 16.2073 14.326C16.6753 14.326 17.0653 14.224 17.3773 14.02C17.7013 13.804 17.9413 13.528 18.0973 13.192H20.4373C20.2693 13.756 19.9873 14.272 19.5913 14.74C19.2073 15.196 18.7273 15.556 18.1513 15.82C17.5873 16.084 16.9453 16.216 16.2253 16.216ZM16.2433 8.728C15.6793 8.728 15.1813 8.89 14.7493 9.214C14.3173 9.526 14.0413 10.006 13.9213 10.654H18.3673C18.3313 10.066 18.1153 9.598 17.7193 9.25C17.3233 8.902 16.8313 8.728 16.2433 8.728ZM25.7231 16.216C24.9551 16.216 24.3251 16.096 23.8331 15.856C23.3411 15.604 22.9751 15.274 22.7351 14.866C22.4951 14.458 22.3751 14.008 22.3751 13.516C22.3751 12.688 22.6991 12.016 23.3471 11.5C23.9951 10.984 24.9671 10.726 26.2631 10.726H28.5311V10.51C28.5311 9.898 28.3571 9.448 28.0091 9.16C27.6611 8.872 27.2291 8.728 26.7131 8.728C26.2451 8.728 25.8371 8.842 25.4891 9.07C25.1411 9.286 24.9251 9.61 24.8411 10.042H22.5911C22.6511 9.394 22.8671 8.83 23.2391 8.35C23.6231 7.87 24.1151 7.504 24.7151 7.252C25.3151 6.988 25.9871 6.856 26.7311 6.856C28.0031 6.856 29.0051 7.174 29.7371 7.81C30.4691 8.446 30.8351 9.346 30.8351 10.51V16H28.8731L28.6571 14.56C28.3931 15.04 28.0211 15.436 27.5411 15.748C27.0731 16.06 26.4671 16.216 25.7231 16.216ZM26.2451 14.416C26.9051 14.416 27.4151 14.2 27.7751 13.768C28.1471 13.336 28.3811 12.802 28.4771 12.166H26.5151C25.9031 12.166 25.4651 12.28 25.2011 12.508C24.9371 12.724 24.8051 12.994 24.8051 13.318C24.8051 13.666 24.9371 13.936 25.2011 14.128C25.4651 14.32 25.8131 14.416 26.2451 14.416ZM33.0338 16V7.072H35.0858L35.3018 8.746C35.6258 8.17 36.0638 7.714 36.6158 7.378C37.1798 7.03 37.8398 6.856 38.5958 6.856V9.286H37.9478C37.4438 9.286 36.9938 9.364 36.5978 9.52C36.2018 9.676 35.8898 9.946 35.6618 10.33C35.4458 10.714 35.3378 11.248 35.3378 11.932V16H33.0338ZM40.1705 16V7.072H42.2045L42.3845 8.584C42.6605 8.056 43.0565 7.636 43.5725 7.324C44.1005 7.012 44.7185 6.856 45.4265 6.856C46.5305 6.856 47.3885 7.204 48.0005 7.9C48.6125 8.596 48.9185 9.616 48.9185 10.96V16H46.6145V11.176C46.6145 10.408 46.4585 9.82 46.1465 9.412C45.8345 9.004 45.3485 8.8 44.6885 8.8C44.0405 8.8 43.5065 9.028 43.0865 9.484C42.6785 9.94 42.4745 10.576 42.4745 11.392V16H40.1705ZM55.4107 16V7.072H57.4447L57.6427 8.278C57.9307 7.846 58.3087 7.504 58.7767 7.252C59.2567 6.988 59.8087 6.856 60.4327 6.856C61.8127 6.856 62.7907 7.39 63.3667 8.458C63.6907 7.966 64.1227 7.576 64.6627 7.288C65.2147 7 65.8147 6.856 66.4627 6.856C67.6267 6.856 68.5207 7.204 69.1447 7.9C69.7687 8.596 70.0807 9.616 70.0807 10.96V16H67.7767V11.176C67.7767 10.408 67.6267 9.82 67.3267 9.412C67.0387 9.004 66.5887 8.8 65.9767 8.8C65.3527 8.8 64.8487 9.028 64.4647 9.484C64.0927 9.94 63.9067 10.576 63.9067 11.392V16H61.6027V11.176C61.6027 10.408 61.4527 9.82 61.1527 9.412C60.8527 9.004 60.3907 8.8 59.7667 8.8C59.1547 8.8 58.6567 9.028 58.2727 9.484C57.9007 9.94 57.7147 10.576 57.7147 11.392V16H55.4107ZM76.5521 16.216C75.6881 16.216 74.9081 16.018 74.2121 15.622C73.5281 15.226 72.9821 14.68 72.5741 13.984C72.1781 13.276 71.9801 12.46 71.9801 11.536C71.9801 10.612 72.1841 9.802 72.5921 9.106C73.0001 8.398 73.5461 7.846 74.2301 7.45C74.9261 7.054 75.7061 6.856 76.5701 6.856C77.4221 6.856 78.1901 7.054 78.8741 7.45C79.5701 7.846 80.1161 8.398 80.5121 9.106C80.9201 9.802 81.1241 10.612 81.1241 11.536C81.1241 12.46 80.9201 13.276 80.5121 13.984C80.1161 14.68 79.5701 15.226 78.8741 15.622C78.1781 16.018 77.4041 16.216 76.5521 16.216ZM76.5521 14.218C77.1521 14.218 77.6741 13.996 78.1181 13.552C78.5621 13.096 78.7841 12.424 78.7841 11.536C78.7841 10.648 78.5621 9.982 78.1181 9.538C77.6741 9.082 77.1581 8.854 76.5701 8.854C75.9581 8.854 75.4301 9.082 74.9861 9.538C74.5541 9.982 74.3381 10.648 74.3381 11.536C74.3381 12.424 74.5541 13.096 74.9861 13.552C75.4301 13.996 75.9521 14.218 76.5521 14.218ZM83.1842 16V7.072H85.2362L85.4522 8.746C85.7762 8.17 86.2142 7.714 86.7662 7.378C87.3302 7.03 87.9902 6.856 88.7462 6.856V9.286H88.0982C87.5942 9.286 87.1442 9.364 86.7482 9.52C86.3522 9.676 86.0402 9.946 85.8122 10.33C85.5962 10.714 85.4882 11.248 85.4882 11.932V16H83.1842ZM94.5007 16.216C93.6007 16.216 92.8027 16.024 92.1067 15.64C91.4107 15.256 90.8647 14.716 90.4687 14.02C90.0727 13.324 89.8747 12.52 89.8747 11.608C89.8747 10.684 90.0667 9.862 90.4507 9.142C90.8467 8.422 91.3867 7.864 92.0707 7.468C92.7667 7.06 93.5827 6.856 94.5187 6.856C95.3947 6.856 96.1687 7.048 96.8407 7.432C97.5127 7.816 98.0347 8.344 98.4067 9.016C98.7907 9.676 98.9827 10.414 98.9827 11.23C98.9827 11.362 98.9767 11.5 98.9647 11.644C98.9647 11.788 98.9587 11.938 98.9467 12.094H92.1607C92.2087 12.79 92.4487 13.336 92.8807 13.732C93.3247 14.128 93.8587 14.326 94.4827 14.326C94.9507 14.326 95.3407 14.224 95.6527 14.02C95.9767 13.804 96.2167 13.528 96.3727 13.192H98.7127C98.5447 13.756 98.2627 14.272 97.8667 14.74C97.4827 15.196 97.0027 15.556 96.4267 15.82C95.8627 16.084 95.2207 16.216 94.5007 16.216ZM94.5187 8.728C93.9547 8.728 93.4567 8.89 93.0247 9.214C92.5927 9.526 92.3167 10.006 92.1967 10.654H96.6427C96.6067 10.066 96.3907 9.598 95.9947 9.25C95.5987 8.902 95.1067 8.728 94.5187 8.728Z" fill="#007E85"/>
<path d="M116.428 2.94922L123.479 9.99994L116.428 17.0507" stroke="#007E85" stroke-width="1.4" stroke-linecap="round" stroke-linejoin="round"/>
<path d="M123.479 10L108.479 10" stroke="#007E85" stroke-width="1.4" stroke-linecap="round" stroke-linejoin="round"/>
</svg>
